<svg xmlns="http://www.w3.org/2000/svg" viewBox="0 0 48 54">
  <defs>
    <style>
      .a {
        fill: #1d1d1f;
      }
    </style>
  </defs>
  <title>imac_large_</title>
  <path class="a" d="M46.469,10H1.531A1.766,1.766,0,0,0,0,11.531L.041,41.469A1.766,1.766,0,0,0,1.572,43H21l-.89,4.119a2.808,2.808,0,0,1-2.927,2.188l-.069,0a.342.342,0,0,0-.1.669.16.16,0,0,0,.042.015V50h13.9v-.005a.123.123,0,0,0,.042-.015.34.34,0,0,0,.244-.324.345.345,0,0,0-.346-.345l-.069,0a2.81,2.81,0,0,1-2.928-2.187L27,43H46.469A1.766,1.766,0,0,0,48,41.469V11.531A1.766,1.766,0,0,0,46.469,10ZM24.946,40.829c-.03.06-.061.117-.093.166s-.066.1-.1.136-.059.066-.076.085a.564.564,0,0,1-.107.073.226.226,0,0,1-.111.026.326.326,0,0,1-.09-.016l-.109-.034-.112-.035a.418.418,0,0,0-.1-.015.357.357,0,0,0-.108.017c-.04.011-.079.023-.118.036l-.109.035a.315.315,0,0,1-.082.015.26.26,0,0,1-.088-.015.364.364,0,0,1-.09-.054.661.661,0,0,1-.1-.1A1.663,1.663,0,0,1,23.242,41a1.572,1.572,0,0,1-.107-.189,1.751,1.751,0,0,1-.083-.216A1.645,1.645,0,0,1,23,40.367a1.314,1.314,0,0,1-.021-.219.927.927,0,0,1,.048-.3.767.767,0,0,1,.134-.242.607.607,0,0,1,.2-.159.552.552,0,0,1,.246-.056.626.626,0,0,1,.232.056.562.562,0,0,0,.183.057.209.209,0,0,0,.064-.017c.032-.011.079-.027.138-.05s.1-.034.138-.042a.494.494,0,0,1,.107-.012.586.586,0,0,1,.28.071.555.555,0,0,1,.21.186.552.552,0,0,0-.208.206.6.6,0,0,0-.063.28.552.552,0,0,0,.089.307.544.544,0,0,0,.248.211A1.532,1.532,0,0,1,24.946,40.829ZM24,39.306a.472.472,0,0,1,.041-.189.656.656,0,0,1,.111-.173.6.6,0,0,1,.16-.125.458.458,0,0,1,.191-.053.081.081,0,0,1,0,.025v.027a.522.522,0,0,1-.041.2.6.6,0,0,1-.106.174.516.516,0,0,1-.151.123.349.349,0,0,1-.171.045c-.024,0-.036,0-.038-.014ZM46,37H2V12H46Z"/>
</svg>
