<svg xmlns="http://www.w3.org/2000/svg" viewBox="0 0 72 54"><g><rect width="72" height="54" fill="none"/><g><path d="M69.5,11h-45A1.5,1.5,0,0,0,23,12.5V25h1V12H70V37H44V47h3a1,1,0,0,1,.868,1.5A2.067,2.067,0,0,1,47,49.23a12.259,12.259,0,0,1-1.682.77H53V43H69.5A1.5,1.5,0,0,0,71,41.5v-29A1.5,1.5,0,0,0,69.5,11Z" fill="#1d1d1f"/><path d="M43,27.5A1.353,1.353,0,0,0,41.5,26H6.5A1.336,1.336,0,0,0,5,27.5V48H1c.053.092.127.323.211.323a11.526,11.526,0,0,0,4.64,1.422c2.413.164,4.835.253,5.121.253h1.415C15.737,50,24,50,24,50l13,0s2.358-.08,4.926-.252a11.472,11.472,0,0,0,4.639-1.422A1.082,1.082,0,0,0,47,48H43ZM41,48H7V28H41Z" fill="#1d1d1f"/></g></g></svg>